{
  "accessors": [
    {
      "bufferView": 2,
      "componentType": 5126,
      "count": 65532,
      "max": [
        2.6529531478881836,
        2.2970130443573,
        1.1559699773788452
      ],
      "min": [
        0.0008369684219360352,
        0.0,
        0.0
      ],
      "type": "VEC3"
    },
    {
      "bufferView": 2,
      "byteOffset": 786384,
      "componentType": 5126,
      "count": 65532,
      "max": [
        0.9999160766601563,
        0.9999779462814331,
        0.9999940395355225
      ],
      "min": [
        -0.9999252557754517,
        -0.9999258518218994,
        -0.999998927116394
      ],
      "type": "VEC3"
    },
    {
      "bufferView": 1,
      "componentType": 5126,
      "count": 65532,
      "max": [
        0.97809898853302,
        0.9600589871406555
      ],
      "min": [
        0.0021490000654011965,
        0.0021490000654011965
      ],
      "type": "VEC2"
    },
    {
      "bufferView": 0,
      "componentType": 5125,
      "count": 301014,
      "type": "SCALAR"
    },
    {
      "bufferView": 2,
      "byteOffset": 1572768,
      "componentType": 5126,
      "count": 49520,
      "max": [
        2.6502881050109863,
        2.2989649772644043,
        1.1559699773788452
      ],
      "min": [
        0.0,
        0.00027108192443847656,
        0.0
      ],
      "type": "VEC3"
    },
    {
      "bufferView": 2,
      "byteOffset": 2167008,
      "componentType": 5126,
      "count": 49520,
      "max": [
        0.999900221824646,
        0.9999370574951172,
        0.9999734163284302
      ],
      "min": [
        -0.9999570846557617,
        -0.9997857213020325,
        -0.9999692440032959
      ],
      "type": "VEC3"
    },
    {
      "bufferView": 1,
      "byteOffset": 524256,
      "componentType": 5126,
      "count": 49520,
      "max": [
        0.9978510141372681,
        0.9978510141372681
      ],
      "min": [
        0.0021490000654011965,
        0.0021490000654011965
      ],
      "type": "VEC2"
    },
    {
      "bufferView": 0,
      "byteOffset": 1204056,
      "componentType": 5125,
      "count": 146448,
      "type": "SCALAR"
    }
  ],
  "asset": {
    "extras": {
      "author": "Steinkern (https://sketchfab.com/steinkern)",
      "license": "CC-BY-NC-4.0 (http://creativecommons.org/licenses/by-nc/4.0/)",
      "source": "https://sketchfab.com/3d-models/perisphinctes-sp-4426d269d52b4269b421226c054b9e07",
      "title": "Perisphinctes sp."
    },
    "generator": "Sketchfab-12.68.0",
    "version": "2.0"
  },
  "bufferViews": [
    {
      "buffer": 0,
      "byteLength": 1789848,
      "name": "floatBufferViews",
      "target": 34963
    },
    {
      "buffer": 0,
      "byteLength": 920416,
      "byteOffset": 1789848,
      "byteStride": 8,
      "name": "floatBufferViews",
      "target": 34962
    },
    {
      "buffer": 0,
      "byteLength": 2761248,
      "byteOffset": 2710264,
      "byteStride": 12,
      "name": "floatBufferViews",
      "target": 34962
    }
  ],
  "buffers": [
    {
      "byteLength": 5471512,
      "uri": "scene.bin"
    }
  ],
  "images": [
    {
      "uri": "textures/Material_baseColor.png"
    }
  ],
  "materials": [
    {
      "doubleSided": true,
      "name": "Material",
      "pbrMetallicRoughness": {
        "baseColorTexture": {
          "index": 0
        },
        "metallicFactor": 0.0,
        "roughnessFactor": 0.6
      }
    }
  ],
  "meshes": [
    {
      "name": "Object_0",
      "primitives": [
        {
          "attributes": {
            "NORMAL": 1,
            "POSITION": 0,
            "TEXCOORD_0": 2
          },
          "indices": 3,
          "material": 0,
          "mode": 4
        }
      ]
    },
    {
      "name": "Object_1",
      "primitives": [
        {
          "attributes": {
            "NORMAL": 5,
            "POSITION": 4,
            "TEXCOORD_0": 6
          },
          "indices": 7,
          "material": 0,
          "mode": 4
        }
      ]
    }
  ],
  "nodes": [
    {
      "children": [
        1
      ],
      "matrix": [
        -0.691363513469696,
        0.6504279375076293,
        0.31457915902137773,
        0.0,
        -0.43343162536621094,
        -0.02501985803246478,
        -0.90083909034729,
        0.0,
        -0.5780601501464844,
        -0.7591558098793031,
        0.2992138564586638,
        0.0,
        -0.5436997413635254,
        0.3348311483860016,
        0.08895787596702583,
        1.0
      ],
      "name": "Sketchfab_model"
    },
    {
      "children": [
        2
      ],
      "matrix": [
        1.0,
        0.0,
        0.0,
        0.0,
        0.0,
        1.0,
        0.0,
        0.0,
        0.0,
        0.0,
        1.0,
        0.0,
        -1.6355400085449219,
        -1.3011970520019531,
        -0.5004199743270874,
        1.0
      ],
      "name": "perisphinctoidea-sp.obj.cleaner.gles"
    },
    {
      "children": [
        3,
        4
      ],
      "name": "Object_2"
    },
    {
      "mesh": 0,
      "name": "Object_3"
    },
    {
      "mesh": 1,
      "name": "Object_4"
    }
  ],
  "samplers": [
    {
      "magFilter": 9729,
      "minFilter": 9987,
      "wrapS": 10497,
      "wrapT": 10497
    }
  ],
  "scene": 0,
  "scenes": [
    {
      "name": "Sketchfab_Scene",
      "nodes": [
        0
      ]
    }
  ],
  "textures": [
    {
      "sampler": 0,
      "source": 0
    }
  ]
}
